<!DOCTYPE svg PUBLIC "-//W3C//DTD SVG 1.1//EN" "http://www.w3.org/Graphics/SVG/1.1/DTD/svg11.dtd">
<!-- Uploaded to: SVG Repo, www.svgrepo.com, Transformed by: SVG Repo Mixer Tools -->
<svg width="800px" height="800px" viewBox="0 0 14 14" role="img" focusable="false" aria-hidden="true" xmlns="http://www.w3.org/2000/svg" fill="#000000">
<g id="SVGRepo_bgCarrier" stroke-width="0"/>
<g id="SVGRepo_tracerCarrier" stroke-linecap="round" stroke-linejoin="round"/>
<g id="SVGRepo_iconCarrier"> <g transform="translate(.42857133 .14285704) scale(.28571)"> <path fill="#546e7a" d="M4 28V8c0-2.2 1.8-4 4-4h28c2.2 0 4 1.8 4 4v20c0 2.2-1.8 4-4 4H8c-2.2 0-4-1.8-4-4z"/> <path fill="#bbdefb" d="M36 7H8c-.6 0-1 .4-1 1v20c0 .6.4 1 1 1h28c.6 0 1-.4 1-1V8c0-.6-.4-1-1-1z"/> <path fill="#37474f" d="M38 33H6c-2.2 0-4-1.8-4-4h40c0 2.2-1.8 4-4 4z"/> <path fill="#FAD513" d="M24 40V16c0-2.2 1.8-4 4-4h12c2.2 0 4 1.8 4 4v24c0 2.2-1.8 4-4 4H28c-2.2 0-4-1.8-4-4z"/> <path fill="#fff3e0" d="M40 15H28c-.6 0-1 .4-1 1v22c0 .6.4 1 1 1h12c.6 0 1-.4 1-1V16c0-.6-.4-1-1-1z"/> <circle cx="34" cy="41.5" r="1.5" fill="#a6642a"/> </g> </g>
</svg>