<svg width="1247" height="662" viewBox="0 0 1247 662" fill="none" xmlns="http://www.w3.org/2000/svg">
<path d="M1195.71 74.395C1170.6 216.591 1103.28 377.629 962.789 406.042C789.357 442.11 662.88 278.113 524.634 208.039C260.088 75.5635 -18.996 287.508 42.66 574.696" stroke="url(#paint0_linear_41_12)" stroke-width="60" stroke-miterlimit="10" stroke-linecap="round" stroke-linejoin="round"/>
<path d="M1152.41 34.8574C1159.7 9.78276 1185.8 -4.71484 1210.88 2.24121L1211.47 2.40918C1236.56 9.70264 1251.06 35.7961 1244.09 60.8877L1243.92 61.4805C1236.63 86.5554 1210.53 101.052 1185.45 94.0967L1184.86 93.9287C1159.58 86.5764 1145.06 60.1299 1152.41 34.8574Z" fill="black" fill-opacity="0.2" stroke="url(#paint1_linear_41_12)"/>
<g clip-path="url(#clip0_41_12)">
<path d="M1178.56 43.8755V72.6917H1217.43V43.8755L1198 30.6631L1178.56 43.8755Z" fill="#FAD513"/>
<path d="M1181.89 69.3613V45.6443L1198 34.6949L1214.1 45.6443V69.3613H1181.89Z" fill="#56ACE0"/>
<path d="M1220.03 41.6223L1198.92 27.2736C1198.36 26.8883 1197.61 26.8883 1197.05 27.2736L1175.96 41.6223C1175.49 41.9287 1175.23 42.4524 1175.23 43.0057V74.3715C1175.23 75.2905 1175.97 76.0415 1176.9 76.0415H1219.11C1220.03 76.0415 1220.78 75.3005 1220.78 74.3715V42.996C1220.77 42.4426 1220.5 41.9287 1220.03 41.6223ZM1217.43 72.6917H1178.56V43.8755L1198 30.6632L1217.43 43.8658V72.6917H1217.43Z" fill="#194F82"/>
<path d="M1227.27 39.5076L1198.92 20.2474C1198.36 19.862 1197.61 19.862 1197.05 20.2474L1184.23 28.9634V23.133C1184.23 22.214 1183.49 21.463 1182.56 21.463H1175.27C1174.35 21.463 1173.6 22.2041 1173.6 23.133V36.1872L1168.73 39.4879C1167.97 40.0116 1167.77 41.0492 1168.29 41.8002C1168.81 42.5513 1169.84 42.7588 1170.6 42.235L1198 23.6468L1225.4 42.2646C1226.15 42.8082 1227.18 42.5513 1227.71 41.8299C1228.23 41.0492 1228.04 40.0214 1227.27 39.5076ZM1180.89 31.2363L1176.94 33.934V24.803H1180.89V31.2363Z" fill="#194F82"/>
<path d="M1180.89 31.2363V24.7931H1176.94V33.9242L1180.89 31.2363Z" fill="#FFC10D"/>
</g>
<path d="M50 662C77.6142 662 100 639.614 100 612C100 584.386 77.6142 562 50 562C22.3858 562 0 584.386 0 612C0 639.614 22.3858 662 50 662Z" fill="#0143B1"/>
<path d="M12.7212 593.746H62.0999C62.7824 593.746 63.4291 593.962 63.9859 594.357L77.6553 604.344C77.7092 604.38 77.7631 604.434 77.8349 604.47L89.5823 611.888C90.3906 612.391 90.9115 613.235 91.0373 614.169L92.115 622.288C92.3665 624.21 90.8756 625.917 88.9536 625.917H12.7212C10.9609 625.899 9.52393 624.462 9.52393 622.701V596.943C9.52393 595.183 10.9609 593.746 12.7212 593.746Z" fill="#FCFCFD"/>
<g opacity="0.5">
<path d="M41.1557 597.303V596.261H9.59578C9.54189 596.476 9.52393 596.71 9.52393 596.943V597.321H41.1557V597.303Z" fill="#BDBDBE"/>
</g>
<path d="M50.2077 608.764H28.3115C28.078 608.764 27.8984 608.585 27.8984 608.351V596.694C27.8984 596.46 28.078 596.281 28.3115 596.281H50.2077C50.4412 596.281 50.6208 596.46 50.6208 596.694V608.351C50.6208 608.567 50.4412 608.764 50.2077 608.764Z" fill="#414753"/>
<path d="M57.0529 608.763H75.8595C77.045 608.763 77.4941 607.218 76.4882 606.589C76.3804 606.517 76.2726 606.446 76.1649 606.374L62.4955 596.387C62.3877 596.297 62.244 596.261 62.1003 596.261H57.0529C56.4062 596.261 55.8674 596.782 55.8674 597.446V607.577C55.8853 608.224 56.4062 608.763 57.0529 608.763Z" fill="#414753"/>
<path d="M21.0019 609.409H9.52393V614.762H21.0019V609.409Z" fill="#FAD513"/>
<path d="M32.4602 609.409H20.9822V614.762H32.4602V609.409Z" fill="#0143B1"/>
<path d="M43.9387 609.409H32.4608V614.762H43.9387V609.409Z" fill="#FAD513"/>
<path d="M55.4168 609.409H43.9388V614.762H55.4168V609.409Z" fill="#0143B1"/>
<path d="M66.8779 609.411H55.4V614.763H66.8779V609.411Z" fill="#FAD513"/>
<path d="M78.3368 614.762H91.1081L91.0362 614.151C90.9105 613.217 90.3716 612.373 89.5813 611.87L85.6654 609.391H78.3368V614.762Z" fill="#FAD513"/>
<path d="M78.3555 609.409H66.8776V614.762H78.3555V609.409Z" fill="#0143B1"/>
<path d="M91.3965 616.809H89.241L83.7625 621.102H13.1523L9.52393 618.641V622.683C9.52393 624.443 10.9609 625.88 12.7212 625.88H88.9536C90.8936 625.88 92.3844 624.174 92.115 622.252L91.3965 616.809Z" fill="#646B79"/>
<path d="M80.1872 616.019C75.6786 616.019 72.0143 619.683 72.0143 624.192C72.0143 624.767 72.0682 625.341 72.1939 625.88H88.1984C88.3062 625.341 88.378 624.767 88.378 624.192C88.3601 619.683 84.6957 616.019 80.1872 616.019Z" fill="#333842"/>
<path d="M80.1876 630.749C83.8086 630.749 86.7439 627.813 86.7439 624.192C86.7439 620.571 83.8086 617.636 80.1876 617.636C76.5667 617.636 73.6313 620.571 73.6313 624.192C73.6313 627.813 76.5667 630.749 80.1876 630.749Z" fill="#4F5565"/>
<path d="M80.1881 628.054C82.321 628.054 84.05 626.325 84.05 624.192C84.05 622.059 82.321 620.33 80.1881 620.33C78.0552 620.33 76.3262 622.059 76.3262 624.192C76.3262 626.325 78.0552 628.054 80.1881 628.054Z" fill="#BDBDBE"/>
<path d="M80.1881 626.617C81.5274 626.617 82.613 625.531 82.613 624.192C82.613 622.852 81.5274 621.767 80.1881 621.767C78.8489 621.767 77.7632 622.852 77.7632 624.192C77.7632 625.531 78.8489 626.617 80.1881 626.617Z" fill="#F1F3F7"/>
<path d="M80.1882 625.665C81.0017 625.665 81.6612 625.005 81.6612 624.192C81.6612 623.378 81.0017 622.719 80.1882 622.719C79.3748 622.719 78.7153 623.378 78.7153 624.192C78.7153 625.005 79.3748 625.665 80.1882 625.665Z" fill="#646B79"/>
<path d="M80.1878 621.443C80.4358 621.443 80.6369 621.266 80.6369 621.048C80.6369 620.83 80.4358 620.653 80.1878 620.653C79.9398 620.653 79.7388 620.83 79.7388 621.048C79.7388 621.266 79.9398 621.443 80.1878 621.443Z" fill="#646B79"/>
<path d="M80.1878 627.73C80.4358 627.73 80.6369 627.553 80.6369 627.335C80.6369 627.117 80.4358 626.94 80.1878 626.94C79.9398 626.94 79.7388 627.117 79.7388 627.335C79.7388 627.553 79.9398 627.73 80.1878 627.73Z" fill="#646B79"/>
<path d="M83.3314 624.641C83.5497 624.641 83.7266 624.44 83.7266 624.192C83.7266 623.944 83.5497 623.743 83.3314 623.743C83.1132 623.743 82.9363 623.944 82.9363 624.192C82.9363 624.44 83.1132 624.641 83.3314 624.641Z" fill="#646B79"/>
<path d="M77.043 624.641C77.2612 624.641 77.4382 624.44 77.4382 624.192C77.4382 623.944 77.2612 623.743 77.043 623.743C76.8247 623.743 76.6478 623.944 76.6478 624.192C76.6478 624.44 76.8247 624.641 77.043 624.641Z" fill="#646B79"/>
<path d="M82.7343 622.284C82.8886 622.129 82.8716 621.862 82.6962 621.687C82.5208 621.511 82.2536 621.494 82.0993 621.649C81.9449 621.803 81.962 622.07 82.1374 622.246C82.3127 622.421 82.58 622.438 82.7343 622.284Z" fill="#646B79"/>
<path d="M78.2808 626.734C78.4351 626.58 78.4181 626.313 78.2427 626.137C78.0673 625.962 77.8001 625.945 77.6458 626.099C77.4914 626.253 77.5085 626.521 77.6839 626.696C77.8592 626.871 78.1265 626.888 78.2808 626.734Z" fill="#646B79"/>
<path d="M82.0976 626.736C82.2519 626.89 82.5192 626.873 82.6946 626.698C82.87 626.523 82.8871 626.255 82.7328 626.101C82.5785 625.947 82.3112 625.964 82.1358 626.139C81.9604 626.314 81.9433 626.582 82.0976 626.736Z" fill="#646B79"/>
<path d="M77.648 622.285C77.8023 622.439 78.0696 622.422 78.245 622.247C78.4204 622.071 78.4375 621.804 78.2832 621.65C78.1289 621.495 77.8616 621.512 77.6862 621.688C77.5108 621.863 77.4937 622.13 77.648 622.285Z" fill="#646B79"/>
<path d="M30.7359 624.192C30.7359 619.683 27.0715 616.019 22.563 616.019C18.0544 616.019 14.3901 619.683 14.3901 624.192C14.3901 624.767 14.444 625.341 14.5697 625.88H30.5742C30.682 625.341 30.7359 624.785 30.7359 624.192Z" fill="#333842"/>
<path d="M22.5635 630.749C26.1844 630.749 29.1198 627.813 29.1198 624.192C29.1198 620.571 26.1844 617.636 22.5635 617.636C18.9425 617.636 16.0072 620.571 16.0072 624.192C16.0072 627.813 18.9425 630.749 22.5635 630.749Z" fill="#4F5565"/>
<path d="M22.5644 628.054C24.6972 628.054 26.4263 626.325 26.4263 624.192C26.4263 622.059 24.6972 620.33 22.5644 620.33C20.4315 620.33 18.7025 622.059 18.7025 624.192C18.7025 626.325 20.4315 628.054 22.5644 628.054Z" fill="#BDBDBE"/>
<path d="M22.5639 626.617C23.9031 626.617 24.9888 625.531 24.9888 624.192C24.9888 622.852 23.9031 621.767 22.5639 621.767C21.2247 621.767 20.139 622.852 20.139 624.192C20.139 625.531 21.2247 626.617 22.5639 626.617Z" fill="#F1F3F7"/>
<path d="M22.5642 625.665C23.3776 625.665 24.0371 625.005 24.0371 624.192C24.0371 623.378 23.3776 622.719 22.5642 622.719C21.7507 622.719 21.0912 623.378 21.0912 624.192C21.0912 625.005 21.7507 625.665 22.5642 625.665Z" fill="#646B79"/>
<path d="M22.5637 621.443C22.8118 621.443 23.0128 621.266 23.0128 621.048C23.0128 620.83 22.8118 620.653 22.5637 620.653C22.3157 620.653 22.1147 620.83 22.1147 621.048C22.1147 621.266 22.3157 621.443 22.5637 621.443Z" fill="#646B79"/>
<path d="M22.5637 627.73C22.8118 627.73 23.0128 627.553 23.0128 627.335C23.0128 627.117 22.8118 626.94 22.5637 626.94C22.3157 626.94 22.1147 627.117 22.1147 627.335C22.1147 627.553 22.3157 627.73 22.5637 627.73Z" fill="#646B79"/>
<path d="M25.7073 624.641C25.9256 624.641 26.1025 624.44 26.1025 624.192C26.1025 623.944 25.9256 623.743 25.7073 623.743C25.4891 623.743 25.3121 623.944 25.3121 624.192C25.3121 624.44 25.4891 624.641 25.7073 624.641Z" fill="#646B79"/>
<path d="M19.4213 624.641C19.6395 624.641 19.8165 624.44 19.8165 624.192C19.8165 623.944 19.6395 623.743 19.4213 623.743C19.203 623.743 19.0261 623.944 19.0261 624.192C19.0261 624.44 19.203 624.641 19.4213 624.641Z" fill="#646B79"/>
<path d="M25.1141 622.284C25.2684 622.13 25.2513 621.863 25.076 621.688C24.9006 621.512 24.6333 621.495 24.479 621.649C24.3247 621.804 24.3417 622.071 24.5171 622.246C24.6925 622.422 24.9597 622.439 25.1141 622.284Z" fill="#646B79"/>
<path d="M20.6556 626.736C20.8099 626.582 20.7928 626.315 20.6175 626.139C20.4421 625.964 20.1748 625.947 20.0205 626.101C19.8662 626.256 19.8833 626.523 20.0586 626.698C20.234 626.874 20.5013 626.891 20.6556 626.736Z" fill="#646B79"/>
<path d="M24.4735 626.739C24.6278 626.894 24.8951 626.877 25.0705 626.701C25.2459 626.526 25.263 626.259 25.1087 626.104C24.9544 625.95 24.6871 625.967 24.5117 626.142C24.3363 626.318 24.3192 626.585 24.4735 626.739Z" fill="#646B79"/>
<path d="M20.0263 622.287C20.1806 622.441 20.4479 622.424 20.6233 622.249C20.7987 622.074 20.8158 621.806 20.6615 621.652C20.5072 621.498 20.2399 621.515 20.0645 621.69C19.8891 621.866 19.872 622.133 20.0263 622.287Z" fill="#646B79"/>
<g opacity="0.5">
<path d="M53.7458 593.746H52.7938V626.006H53.7458V593.746Z" fill="#414753"/>
</g>
<defs>
<linearGradient id="paint0_linear_41_12" x1="820.428" y1="-138.483" x2="384.783" y2="771.706" gradientUnits="userSpaceOnUse">
<stop stop-color="#FAD513"/>
<stop offset="0.008" stop-color="#FAD513"/>
<stop offset="0.016" stop-color="#FAD513"/>
<stop offset="0.024" stop-color="#FAD513"/>
<stop offset="0.056" stop-color="#FAD513"/>
<stop offset="0.92" stop-color="#2C71FE"/>
<stop offset="0.928" stop-color="#2C6FFE"/>
<stop offset="0.936" stop-color="#2C6DFE"/>
<stop offset="0.944" stop-color="#2C6BFE"/>
<stop offset="0.952" stop-color="#2C6AFE"/>
<stop offset="0.96" stop-color="#2C68FE"/>
<stop offset="0.968" stop-color="#2C66FE"/>
<stop offset="0.976" stop-color="#2C64FE"/>
<stop offset="0.984" stop-color="#2C62FE"/>
<stop offset="0.992" stop-color="#2C60FE"/>
<stop offset="1" stop-color="#0143B1"/>
</linearGradient>
<linearGradient id="paint1_linear_41_12" x1="1215.22" y1="-40.9919" x2="1108.11" y2="55.3833" gradientUnits="userSpaceOnUse">
<stop stop-color="#FAD513"/>
<stop offset="0.008" stop-color="#FAD513"/>
<stop offset="0.016" stop-color="#FAD513"/>
<stop offset="0.024" stop-color="#FAD513"/>
<stop offset="0.056" stop-color="#FAD513"/>
<stop offset="0.92" stop-color="#2C71FE"/>
<stop offset="0.928" stop-color="#2C6FFE"/>
<stop offset="0.936" stop-color="#2C6DFE"/>
<stop offset="0.944" stop-color="#2C6BFE"/>
<stop offset="0.952" stop-color="#2C6AFE"/>
<stop offset="0.96" stop-color="#2C68FE"/>
<stop offset="0.968" stop-color="#2C66FE"/>
<stop offset="0.976" stop-color="#2C64FE"/>
<stop offset="0.984" stop-color="#2C62FE"/>
<stop offset="0.992" stop-color="#2C60FE"/>
<stop offset="1" stop-color="#0143B1"/>
</linearGradient>
<clipPath id="clip0_41_12">
<rect width="60" height="60" fill="white" transform="translate(1168 18)"/>
</clipPath>
</defs>
</svg>
